<?xml version="1.0" ?><svg viewBox="0 0 512 512" xmlns="http://www.w3.org/2000/svg"><g id="Wine_cheering"><path d="M478.3326,371.26a13.14,13.14,0,0,0-16.8164-7.8442l-50.4257,18.3524L378.15,291.2607a83.1822,83.1822,0,0,0,41.1481-88.2936,12.6966,12.6966,0,0,0-.3675-1.8361,82.8388,82.8388,0,0,0-3.0441-10.852c-15.4065-42.34-53.9014-88.9484-55.5249-90.9137a13.1275,13.1275,0,0,0-14.5862-3.9478l-93.37,33.9832a12.9047,12.9047,0,0,0-4.501,2.9565c-.3183-9.8672-.8353-16.3592-.8993-17.1582a13.131,13.131,0,0,0-9.6814-11.5954l-95.9766-25.716a13.1362,13.1362,0,0,0-14.1846,5.2C125.7093,85.185,91.4271,134.972,79.7632,178.5c-.3033,1.13-.4827,2.27-.7348,3.403a12.9414,12.9414,0,0,0-.376,1.7325,82.747,82.747,0,0,0,47.497,92.1869L101.2324,368.84,49.4031,354.9525a13.1246,13.1246,0,1,0-6.8017,25.3527l129.02,34.5728a13.1247,13.1247,0,1,0,6.8017-25.3528l-51.8292-13.8887,24.9255-93.0456a81.7906,81.7906,0,0,0,88.8288-61.0631,225.2848,225.2848,0,0,0,6.1651-36.6535c.7883,7.0987,1.8073,14.6193,3.1125,22.29.0128.064.0192.13.0342.1944,2.3135,13.5458,5.5115,27.427,10.0082,39.7787a82.5952,82.5952,0,0,0,93.8425,53.1622l32.9172,90.4459L336,409.0974a13.125,13.125,0,1,0,8.9722,24.6691l62.7539-22.8384.0085-.0021.0129-.0064,62.741-22.8342A13.1281,13.1281,0,0,0,478.3326,371.26ZM214.9866,214.7346A56.8361,56.8361,0,0,1,103.26,198.6274H218.3491A161.8753,161.8753,0,0,1,214.9866,214.7346ZM313.74,270.2552a56.4827,56.4827,0,0,1-29.4116-32.0947,173.2475,173.2475,0,0,1-5.86-20.3925H394.5923a56.8266,56.8266,0,0,1-80.852,52.4872Z"/></g></svg>